<?xml version="1.0" encoding="UTF-8" standalone="no"?>
<!DOCTYPE svg PUBLIC "-//W3C//DTD SVG 1.1//EN"
 "http://www.w3.org/Graphics/SVG/1.1/DTD/svg11.dtd">
<!-- Generated by graphviz version 2.42.3 (20191010.1750)
 -->
<!-- Title: makefile Pages: 1 -->
<svg width="154pt" height="188pt"
 viewBox="0.00 0.00 154.41 188.00" xmlns="http://www.w3.org/2000/svg" xmlns:xlink="http://www.w3.org/1999/xlink">
<g id="graph0" class="graph" transform="scale(1 1) rotate(0) translate(4 184)">
<title>makefile</title>
<polygon fill="white" stroke="transparent" points="-4,4 -4,-184 150.41,-184 150.41,4 -4,4"/>
<!-- foobar_ex -->
<g id="node1" class="node">
<title>foobar_ex</title>
<ellipse fill="none" stroke="black" cx="73.2" cy="-18" rx="73.41" ry="18"/>
<text text-anchor="middle" x="73.2" y="-13.8" font-family="Times,serif" font-size="14.00">foobar executable</text>
</g>
<!-- foo_c -->
<g id="node2" class="node">
<title>foo_c</title>
<ellipse fill="none" stroke="black" cx="36.2" cy="-162" rx="28.06" ry="18"/>
<text text-anchor="middle" x="36.2" y="-157.8" font-family="Times,serif" font-size="14.00">foo.c</text>
</g>
<!-- foo_o -->
<g id="node4" class="node">
<title>foo_o</title>
<ellipse fill="none" stroke="black" cx="36.2" cy="-90" rx="28.56" ry="18"/>
<text text-anchor="middle" x="36.2" y="-85.8" font-family="Times,serif" font-size="14.00">foo.o</text>
</g>
<!-- foo_c&#45;&gt;foo_o -->
<g id="edge1" class="edge">
<title>foo_c&#45;&gt;foo_o</title>
<path fill="none" stroke="black" d="M36.2,-143.7C36.2,-135.98 36.2,-126.71 36.2,-118.11"/>
<polygon fill="black" stroke="black" points="39.7,-118.1 36.2,-108.1 32.7,-118.1 39.7,-118.1"/>
</g>
<!-- bar_c -->
<g id="node3" class="node">
<title>bar_c</title>
<ellipse fill="none" stroke="black" cx="110.2" cy="-162" rx="27.1" ry="18"/>
<text text-anchor="middle" x="110.2" y="-157.8" font-family="Times,serif" font-size="14.00">bar.c</text>
</g>
<!-- bar_o -->
<g id="node5" class="node">
<title>bar_o</title>
<ellipse fill="none" stroke="black" cx="110.2" cy="-90" rx="27.6" ry="18"/>
<text text-anchor="middle" x="110.2" y="-85.8" font-family="Times,serif" font-size="14.00">bar.o</text>
</g>
<!-- bar_c&#45;&gt;bar_o -->
<g id="edge2" class="edge">
<title>bar_c&#45;&gt;bar_o</title>
<path fill="none" stroke="black" d="M110.2,-143.7C110.2,-135.98 110.2,-126.71 110.2,-118.11"/>
<polygon fill="black" stroke="black" points="113.7,-118.1 110.2,-108.1 106.7,-118.1 113.7,-118.1"/>
</g>
<!-- foo_o&#45;&gt;foobar_ex -->
<g id="edge3" class="edge">
<title>foo_o&#45;&gt;foobar_ex</title>
<path fill="none" stroke="black" d="M44.78,-72.76C49.14,-64.53 54.54,-54.32 59.45,-45.02"/>
<polygon fill="black" stroke="black" points="62.57,-46.6 64.15,-36.12 56.38,-43.33 62.57,-46.6"/>
</g>
<!-- bar_o&#45;&gt;foobar_ex -->
<g id="edge4" class="edge">
<title>bar_o&#45;&gt;foobar_ex</title>
<path fill="none" stroke="black" d="M101.62,-72.76C97.27,-64.53 91.87,-54.32 86.95,-45.02"/>
<polygon fill="black" stroke="black" points="90.02,-43.33 82.25,-36.12 83.83,-46.6 90.02,-43.33"/>
</g>
</g>
</svg>
